<mxfile host="app.diagrams.net" modified="2024-04-23T22:16:10.625Z" agent="Mozilla/5.0 (Macintosh; Intel Mac OS X 10_15_7) AppleWebKit/605.1.15 (KHTML, like Gecko) Version/17.2.1 Safari/605.1.15" etag="H8K0Y5ftQNVZcWR9SVV1" version="24.2.7" type="device">
  <diagram id="C5RBs43oDa-KdzZeNtuy" name="Page-1">
    <mxGraphModel dx="477" dy="969" grid="1" gridSize="10" guides="1" tooltips="1" connect="1" arrows="1" fold="1" page="1" pageScale="1" pageWidth="827" pageHeight="1169" math="0" shadow="0">
      <root>
        <mxCell id="WIyWlLk6GJQsqaUBKTNV-0" />
        <mxCell id="WIyWlLk6GJQsqaUBKTNV-1" parent="WIyWlLk6GJQsqaUBKTNV-0" />
        <mxCell id="4OTyIb7c44NHDgAHSQzN-6" style="rounded=0;orthogonalLoop=1;jettySize=auto;html=1;entryX=0;entryY=0.5;entryDx=0;entryDy=0;" edge="1" parent="WIyWlLk6GJQsqaUBKTNV-1" source="4OTyIb7c44NHDgAHSQzN-1" target="4OTyIb7c44NHDgAHSQzN-5">
          <mxGeometry relative="1" as="geometry">
            <Array as="points" />
          </mxGeometry>
        </mxCell>
        <mxCell id="4OTyIb7c44NHDgAHSQzN-24" value="7" style="edgeLabel;html=1;align=center;verticalAlign=middle;resizable=0;points=[];" vertex="1" connectable="0" parent="4OTyIb7c44NHDgAHSQzN-6">
          <mxGeometry x="-0.1" relative="1" as="geometry">
            <mxPoint as="offset" />
          </mxGeometry>
        </mxCell>
        <mxCell id="4OTyIb7c44NHDgAHSQzN-1" value="I" style="ellipse;whiteSpace=wrap;html=1;aspect=fixed;" vertex="1" parent="WIyWlLk6GJQsqaUBKTNV-1">
          <mxGeometry x="80" y="360" width="40" height="40" as="geometry" />
        </mxCell>
        <mxCell id="4OTyIb7c44NHDgAHSQzN-5" value="A" style="ellipse;whiteSpace=wrap;html=1;aspect=fixed;" vertex="1" parent="WIyWlLk6GJQsqaUBKTNV-1">
          <mxGeometry x="160" y="360" width="40" height="40" as="geometry" />
        </mxCell>
        <mxCell id="4OTyIb7c44NHDgAHSQzN-21" style="rounded=0;orthogonalLoop=1;jettySize=auto;html=1;" edge="1" parent="WIyWlLk6GJQsqaUBKTNV-1" source="4OTyIb7c44NHDgAHSQzN-7" target="4OTyIb7c44NHDgAHSQzN-20">
          <mxGeometry relative="1" as="geometry" />
        </mxCell>
        <mxCell id="4OTyIb7c44NHDgAHSQzN-32" value="2" style="edgeLabel;html=1;align=center;verticalAlign=middle;resizable=0;points=[];" vertex="1" connectable="0" parent="4OTyIb7c44NHDgAHSQzN-21">
          <mxGeometry x="-0.0823" y="2" relative="1" as="geometry">
            <mxPoint as="offset" />
          </mxGeometry>
        </mxCell>
        <mxCell id="4OTyIb7c44NHDgAHSQzN-7" value="H" style="ellipse;whiteSpace=wrap;html=1;aspect=fixed;" vertex="1" parent="WIyWlLk6GJQsqaUBKTNV-1">
          <mxGeometry x="240" y="360" width="40" height="40" as="geometry" />
        </mxCell>
        <mxCell id="4OTyIb7c44NHDgAHSQzN-8" style="rounded=0;orthogonalLoop=1;jettySize=auto;html=1;entryX=0;entryY=0.5;entryDx=0;entryDy=0;" edge="1" parent="WIyWlLk6GJQsqaUBKTNV-1" source="4OTyIb7c44NHDgAHSQzN-5" target="4OTyIb7c44NHDgAHSQzN-7">
          <mxGeometry relative="1" as="geometry" />
        </mxCell>
        <mxCell id="4OTyIb7c44NHDgAHSQzN-25" value="5" style="edgeLabel;html=1;align=center;verticalAlign=middle;resizable=0;points=[];" vertex="1" connectable="0" parent="4OTyIb7c44NHDgAHSQzN-8">
          <mxGeometry x="-0.3" relative="1" as="geometry">
            <mxPoint as="offset" />
          </mxGeometry>
        </mxCell>
        <mxCell id="4OTyIb7c44NHDgAHSQzN-16" style="rounded=0;orthogonalLoop=1;jettySize=auto;html=1;" edge="1" parent="WIyWlLk6GJQsqaUBKTNV-1" source="4OTyIb7c44NHDgAHSQzN-9" target="4OTyIb7c44NHDgAHSQzN-15">
          <mxGeometry relative="1" as="geometry" />
        </mxCell>
        <mxCell id="4OTyIb7c44NHDgAHSQzN-29" value="3" style="edgeLabel;html=1;align=center;verticalAlign=middle;resizable=0;points=[];" vertex="1" connectable="0" parent="4OTyIb7c44NHDgAHSQzN-16">
          <mxGeometry x="-0.2143" relative="1" as="geometry">
            <mxPoint as="offset" />
          </mxGeometry>
        </mxCell>
        <mxCell id="4OTyIb7c44NHDgAHSQzN-9" value="B" style="ellipse;whiteSpace=wrap;html=1;aspect=fixed;" vertex="1" parent="WIyWlLk6GJQsqaUBKTNV-1">
          <mxGeometry x="320" y="360" width="40" height="40" as="geometry" />
        </mxCell>
        <mxCell id="4OTyIb7c44NHDgAHSQzN-10" style="rounded=0;orthogonalLoop=1;jettySize=auto;html=1;entryX=0;entryY=0.5;entryDx=0;entryDy=0;" edge="1" parent="WIyWlLk6GJQsqaUBKTNV-1" source="4OTyIb7c44NHDgAHSQzN-7" target="4OTyIb7c44NHDgAHSQzN-9">
          <mxGeometry relative="1" as="geometry" />
        </mxCell>
        <mxCell id="4OTyIb7c44NHDgAHSQzN-26" value="1" style="edgeLabel;html=1;align=center;verticalAlign=middle;resizable=0;points=[];" vertex="1" connectable="0" parent="4OTyIb7c44NHDgAHSQzN-10">
          <mxGeometry x="-0.1286" relative="1" as="geometry">
            <mxPoint as="offset" />
          </mxGeometry>
        </mxCell>
        <mxCell id="4OTyIb7c44NHDgAHSQzN-12" style="rounded=0;orthogonalLoop=1;jettySize=auto;html=1;" edge="1" parent="WIyWlLk6GJQsqaUBKTNV-1" source="4OTyIb7c44NHDgAHSQzN-7" target="4OTyIb7c44NHDgAHSQzN-18">
          <mxGeometry relative="1" as="geometry">
            <mxPoint x="325.85786437626905" y="445.85786437626894" as="targetPoint" />
          </mxGeometry>
        </mxCell>
        <mxCell id="4OTyIb7c44NHDgAHSQzN-27" value="2" style="edgeLabel;html=1;align=center;verticalAlign=middle;resizable=0;points=[];" vertex="1" connectable="0" parent="4OTyIb7c44NHDgAHSQzN-12">
          <mxGeometry x="-0.2688" relative="1" as="geometry">
            <mxPoint as="offset" />
          </mxGeometry>
        </mxCell>
        <mxCell id="4OTyIb7c44NHDgAHSQzN-15" value="E" style="ellipse;whiteSpace=wrap;html=1;aspect=fixed;" vertex="1" parent="WIyWlLk6GJQsqaUBKTNV-1">
          <mxGeometry x="400" y="360" width="40" height="40" as="geometry" />
        </mxCell>
        <mxCell id="4OTyIb7c44NHDgAHSQzN-17" style="rounded=0;orthogonalLoop=1;jettySize=auto;html=1;" edge="1" parent="WIyWlLk6GJQsqaUBKTNV-1" source="4OTyIb7c44NHDgAHSQzN-9" target="4OTyIb7c44NHDgAHSQzN-18">
          <mxGeometry relative="1" as="geometry">
            <mxPoint x="340" y="440" as="targetPoint" />
          </mxGeometry>
        </mxCell>
        <mxCell id="4OTyIb7c44NHDgAHSQzN-30" value="8" style="edgeLabel;html=1;align=center;verticalAlign=middle;resizable=0;points=[];" vertex="1" connectable="0" parent="4OTyIb7c44NHDgAHSQzN-17">
          <mxGeometry x="-0.1964" y="-1" relative="1" as="geometry">
            <mxPoint as="offset" />
          </mxGeometry>
        </mxCell>
        <mxCell id="4OTyIb7c44NHDgAHSQzN-18" value="P" style="ellipse;whiteSpace=wrap;html=1;aspect=fixed;" vertex="1" parent="WIyWlLk6GJQsqaUBKTNV-1">
          <mxGeometry x="400" y="240" width="40" height="40" as="geometry" />
        </mxCell>
        <mxCell id="4OTyIb7c44NHDgAHSQzN-19" style="rounded=0;orthogonalLoop=1;jettySize=auto;html=1;" edge="1" parent="WIyWlLk6GJQsqaUBKTNV-1" source="4OTyIb7c44NHDgAHSQzN-15" target="4OTyIb7c44NHDgAHSQzN-18">
          <mxGeometry relative="1" as="geometry">
            <mxPoint x="480" y="380" as="targetPoint" />
          </mxGeometry>
        </mxCell>
        <mxCell id="4OTyIb7c44NHDgAHSQzN-31" value="4" style="edgeLabel;html=1;align=center;verticalAlign=middle;resizable=0;points=[];" vertex="1" connectable="0" parent="4OTyIb7c44NHDgAHSQzN-19">
          <mxGeometry x="-0.2429" y="2" relative="1" as="geometry">
            <mxPoint as="offset" />
          </mxGeometry>
        </mxCell>
        <mxCell id="4OTyIb7c44NHDgAHSQzN-20" value="C" style="ellipse;whiteSpace=wrap;html=1;aspect=fixed;" vertex="1" parent="WIyWlLk6GJQsqaUBKTNV-1">
          <mxGeometry x="240" y="240" width="40" height="40" as="geometry" />
        </mxCell>
        <mxCell id="4OTyIb7c44NHDgAHSQzN-22" style="rounded=0;orthogonalLoop=1;jettySize=auto;html=1;" edge="1" parent="WIyWlLk6GJQsqaUBKTNV-1" source="4OTyIb7c44NHDgAHSQzN-18" target="4OTyIb7c44NHDgAHSQzN-20">
          <mxGeometry relative="1" as="geometry" />
        </mxCell>
        <mxCell id="4OTyIb7c44NHDgAHSQzN-33" value="3" style="edgeLabel;html=1;align=center;verticalAlign=middle;resizable=0;points=[];" vertex="1" connectable="0" parent="4OTyIb7c44NHDgAHSQzN-22">
          <mxGeometry x="-0.0091" y="-1" relative="1" as="geometry">
            <mxPoint as="offset" />
          </mxGeometry>
        </mxCell>
      </root>
    </mxGraphModel>
  </diagram>
</mxfile>
